PathFileType	4	(X/Y/Z)	Patient4_TMGait_0pt4_02_left_28.trc.trc
DataRate	CameraRate	NumFrames	NumMarkers	Units	OrigDataRate	OrigDataStartFrame	OrigNumFrames
75.268817204301	75.268817204301	4	33	mm	75.268817204301	18	       141
Frame#	Time	Sacral			L.Shoulder			Chest			R.Shoulder			Neck			R.ASIS			L.ASIS			R.Thigh.Superior			R.Thigh.Lateral			R.Thigh.Inferior			R.Patella			L.Thigh.Superior			L.Thigh.Lateral			L.Thigh.Inferior			L.Patella			L.Shank.Superior			L.Shank.Lateral			L.Shank.Inferior			R.Shank.Superior			R.Shank.Lateral			R.Shank.Inferior			R.Heel			R.Midfoot.Superior			R.Midfoot.Lateral			R.Toe			L.Heel			L.Midfoot.Lateral			L.Midfoot.Superior			L.Toe			L.Elbow			L.Wrist			R.Elbow			R.Wrist			
		X1	Y1	Z1	X2	Y2	Z2	X3	Y3	Z3	X4	Y4	Z4	X5	Y5	Z5	X6	Y6	Z6	X7	Y7	Z7	X8	Y8	Z8	X9	Y9	Z9	X10	Y10	Z10	X11	Y11	Z11	X12	Y12	Z12	X13	Y13	Z13	X14	Y14	Z14	X15	Y15	Z15	X16	Y16	Z16	X17	Y17	Z17	X18	Y18	Z18	X19	Y19	Z19	X20	Y20	Z20	X21	Y21	Z21	X22	Y22	Z22	X23	Y23	Z23	X24	Y24	Z24	X25	Y25	Z25	X26	Y26	Z26	X27	Y27	Z27	X28	Y28	Z28	X29	Y29	Z29	X30	Y30	Z30	X31	Y31	Z31	X32	Y32	Z32	X33	Y33	Z33	

18	37.785857142857	901.419523313236	1006.388435621003	529.605875585221	1052.545290184697	1433.640152363472	325.322931004905	1180.016276738242	1364.293534911317	467.466544060165	1127.516511970140	1439.314155939022	651.990245431733	1062.769328069991	1494.693545741240	481.620825738447	1142.241600842104	941.999640195602	614.707722567473	1092.879313981366	962.619736536843	343.310455953838	1148.442631570340	732.006420882490	585.552640736039	1055.832301497749	632.242949386415	654.605681250201	1114.677450685259	571.346028650961	569.737441632264	1101.523840608505	487.384961309566	575.567213976418	1170.024328207520	778.168631336467	369.086986614158	1125.028210967437	653.089507979399	284.735626484739	1228.468409936918	592.456170575106	344.382138880309	1256.393492802940	526.462030708074	334.015004461491	1234.479000712724	454.515656187553	322.037752739252	1158.484700585887	330.178917996402	269.763226698254	1242.548249899793	224.018524418815	316.639476057630	1068.972613674607	400.766083458184	583.304907195520	994.998331964954	300.437505999240	648.695411460126	1027.210324381301	204.524060927349	580.194592799154	885.211071910885	43.076343470518	552.271355908304	1057.447670527224	96.031066169263	583.968007124375	970.179242232207	37.117407694668	625.450164156110	1178.327468010001	42.496934916922	608.697472736071	1151.022097437739	50.151252586753	355.646985939300	1222.071579689682	48.800247993352	273.424341989082	1298.245992155605	122.701768056619	290.924291853407	1428.697689365628	85.099930451120	260.201305159480	932.537633225070	1094.677958096240	244.421609022821	919.973724528856	833.856874919754	255.693589710696	1269.268970553090	1135.502739798740	773.226065867512	1491.700087418845	1217.114551123333	693.483822556703	
19	37.799142857143	901.491432654245	1005.636303418478	527.970546118334	1051.347256465083	1433.321839334269	324.015576468450	1179.000689502311	1364.038022180102	465.990050232503	1126.416025491376	1438.606623018951	650.598808685251	1061.658032602653	1494.121096113807	480.388417503110	1142.316823606924	941.782948571817	613.453837991581	1093.195414663493	961.498537188385	341.845998777601	1146.920213040138	731.293036127502	585.012074507711	1052.977167310277	632.258550695097	653.965244199216	1111.456466130957	570.736866464382	569.538807066381	1097.561307421954	486.891107713442	575.375380164529	1170.266360663254	776.832942024983	367.426251775232	1123.444774113316	650.588664663677	284.984295894045	1227.958563707752	590.545652787151	342.902066159307	1255.248689916700	524.243752085364	333.686883461814	1233.091131046127	452.158853677749	322.510525865036	1156.092743740582	328.129079713113	271.471202346100	1239.636089006937	221.768747767847	318.469797253290	1064.616084123246	400.530016259842	583.141647050364	990.124295482438	300.589582837900	648.589031150513	1022.167506899116	204.445731161278	580.211591383603	879.824540941830	43.031335767784	552.293676711601	1052.075573145935	96.035400680969	584.040117520514	964.788164424073	37.082114553606	625.484108386500	1172.915855851136	42.530917879717	608.716734401865	1147.009501762658	49.291566688438	358.828843012413	1217.485982771614	47.022370955631	276.152726749363	1294.563003095643	119.875337060121	293.079023622066	1424.298220922906	80.754136450598	261.615387457945	928.797023491786	1095.617037608587	243.627762962850	913.771585969354	834.890788894522	256.787168744490	1270.905476424352	1135.535009763661	769.570064456052	1490.753375172387	1223.302252516786	689.956047664943	
20	37.812428571429	901.757807984222	1004.786339373738	526.066760658291	1050.179836872060	1432.889906277182	322.456663329114	1177.997662324636	1363.801957614749	464.334065880552	1125.169629799335	1437.884999691964	649.018779388952	1060.476848555105	1493.485693889077	478.902266306494	1142.540227093771	941.476589389326	612.110385481918	1093.839151777597	960.304721608623	340.297005741586	1145.637344819301	730.506290392473	584.361077250950	1050.399637820111	632.201388182631	653.189696300153	1108.578165572356	570.060966626018	569.204560631781	1093.965127161054	486.284432244493	575.056688275007	1170.844760416219	775.300830289128	365.616882974714	1121.945840119952	647.908527603523	285.324409962743	1227.555602923780	588.434677313543	341.496696307786	1254.021264727342	521.618414246099	333.485385820534	1231.354988707672	449.339669094480	323.116669659216	1152.809410248697	325.916317817625	273.399902411082	1235.417914402680	219.031694560193	320.548876368130	1060.546291061749	400.186833618776	582.870341042447	985.465502520108	300.720428597998	648.390609368142	1017.229995320534	204.300919993706	580.176847062316	874.441274897347	42.971905304921	552.320104219442	1046.699037260384	96.031133264810	584.104333693069	959.393030687473	37.029881329741	625.508511447241	1167.502836854617	42.562474992187	608.740247390686	1141.067482193846	48.189392010867	362.246100388003	1210.839543570384	45.135510293200	278.982669616667	1289.045033908456	116.637717876741	295.496599947234	1417.941894608449	75.795625983187	262.930389102858	925.422715957914	1096.336825594067	242.552367965813	908.514121497981	835.676455255206	257.219495180551	1271.722005423467	1135.267441025101	766.099761111726	1489.288425589027	1228.259970393999	686.755758577435	
21	37.825714285714	902.190887873403	1003.851966283427	523.909120275007	1049.079917896961	1432.337300501347	320.638437250769	1177.033996220565	1363.571746606060	462.499074983079	1123.809797723620	1437.153187125514	647.248061066539	1059.262522389005	1492.789881613692	477.155817960899	1142.896136972003	941.070038968026	610.668255280195	1094.771146762202	959.057752118582	338.669210030175	1144.647447287575	729.646097992978	583.573008644081	1048.194338571292	632.046886574217	652.258677367772	1106.122796670243	569.309284951389	568.690877213447	1090.811158801827	485.542715251976	574.560323813177	1171.664265240982	773.558005753772	363.738383279324	1120.556326275179	645.155589595014	285.685948360554	1227.171242786264	586.162842471649	340.268429915853	1252.653521611034	518.678955721502	333.453021934014	1229.301896038896	446.177608528903	323.819613581772	1148.878313479570	323.567254785817	275.392061387285	1230.242213694840	215.937816733029	322.763026779540	1056.837051019573	399.713210427059	582.455087474151	981.090698079219	300.820184655438	648.083476253500	1012.427826715709	204.076095205706	580.074704145878	869.064636575719	42.904848782863	552.355762485766	1041.321614670200	96.016173854465	584.156183492675	953.998109138947	36.962149982738	625.524965780094	1162.094227886120	42.585532136048	608.770188047970	1133.746744662491	46.849934879582	365.648414488515	1202.782437357593	43.224705916634	281.745350255356	1282.212676204635	113.188165996135	298.091334227173	1410.248542750404	70.599433558701	264.226368330339	922.451842943425	1096.806151433073	241.185508905270	904.212235115675	836.177203734878	256.960790443122	1271.733758762155	1134.675343967454	762.857902676857	1487.394049409066	1231.954350332964	683.905714659389	
